<svg xmlns="http://www.w3.org/2000/svg" viewBox="0 0 348.03 155.62"><defs><style>.\39 5d61769-b6a5-470c-843e-e4ac60e074d0{fill:none}.\34 6686d76-b890-432e-9176-54108bee425e{clip-path:url(#723e6cb3-3609-497d-abde-a21b0b6273b7)}.f3950edc-108b-421c-a5c8-70503f486cbb{clip-path:url(#06a2207d-42d8-4b6a-9334-b1b7f8fb7dbf)}.f67a2eb2-3a6a-4c00-90d8-b56febf323c7{clip-path:url(#9feab6de-9c08-4957-ae6f-1e37237ef7ee)}.e5ed0df8-8849-4057-b7b8-7e31dfb593dd{fill:#b11116;fill-rule:evenodd}.a6f7ab1a-d6ef-4d0f-8e23-bcb4ddbf1859{fill:#231f20}</style><clipPath id="723e6cb3-3609-497d-abde-a21b0b6273b7" transform="translate(-7.9 -6.66)"><path class="95d61769-b6a5-470c-843e-e4ac60e074d0" d="M0 0h361.76v169.17H0z"/></clipPath><clipPath id="06a2207d-42d8-4b6a-9334-b1b7f8fb7dbf" transform="translate(-7.9 -6.66)"><path class="95d61769-b6a5-470c-843e-e4ac60e074d0" d="M5.83 5.83h151.99v157.5H5.83z"/></clipPath><clipPath id="9feab6de-9c08-4957-ae6f-1e37237ef7ee" transform="translate(-7.9 -6.66)"><path class="95d61769-b6a5-470c-843e-e4ac60e074d0" d="M5.83 5.84h151.99v157.5H5.83z"/></clipPath></defs><title>logo</title><g id="1ad47739-35df-4d9a-940d-b8af6ad2cb3d" data-name="Layer 2"><g class="46686d76-b890-432e-9176-54108bee425e" id="a05a7159-bacb-430c-bffa-bc686a2d7ab6" data-name="Layer 1"><g class="f3950edc-108b-421c-a5c8-70503f486cbb"><g class="f67a2eb2-3a6a-4c00-90d8-b56febf323c7"><g class="f67a2eb2-3a6a-4c00-90d8-b56febf323c7"><g class="f3950edc-108b-421c-a5c8-70503f486cbb"><path class="e5ed0df8-8849-4057-b7b8-7e31dfb593dd" d="M63.24 65.21l-18.48 37.35H77.9L63.24 65.21m2.84-20.82l44.16 111.9.4.81.24.65.24.57.33.57.24.65.4.57.49.89.65 1H99.94l-.08-.81v-.73l-.08-.73-.16-.65-.08-.73-.24-.57-.3-1.5-19.15-49.58H42.74L19 156.28l-.32.65-.24.57-.24.57-.16.57-.16.65-.24.73-.08.89-.18 1.09H7.9l.57-.73.4-.73.49-.73.4-.65.49-.73.81-1.46.4-.65z" transform="translate(-7.9 -6.66)"/><path class="e5ed0df8-8849-4057-b7b8-7e31dfb593dd" d="M106.92 65.21l-18.47 37.35h33.22l-14.75-37.35m3-20.82l44.16 111.9.32.81.32.65.24.57.33.57.32.65.33.57.57.89.57 1h-13.29v-.81l-.08-.73-.16-.73-.08-.65-.16-.73-.08-.57-.23-.78-.16-.73-19.31-49.57H86.59l-23.83 49.58-.24.65-.24.57-.24.57-.16.57-.24.65-.08.73-.24.89-.1 1.09h-9.4l.49-.73.41-.73.49-.73.4-.65.41-.73.48-.73.33-.73.49-.65zM65.76 9.5l1.05.08.89.24 1 .24 1 .32.81.49.81.57.81.65.65.65.65.89 1.13 1.78.41 1 .32 1.05.24 1.22.16 1.14.04 1.18-.08 1.14-.16 1.22-.24 1.13-.32 1.06-.41 1.05-.57 1-.57.89-1.3 1.62-.81.65-.81.57-.81.57-1 .4-1 .24-.89.24h-2l-1.94-.49-1-.4-.82-.6-.73-.57-.81-.65-.73-.81-.65-.81-.57-.89-.48-1-.49-1.05-.32-1.06-.22-1.1-.08-1.22L55.8 21l.08-1.21.12-1.14.24-1.22.32-1.05.49-1 .48-.89.57-.89.65-.89.73-.65.81-.65.73-.57.89-.49 1-.32 1-.24 1-.24 1-.08m-.08-2.84l1.78.08 1.64.29 1.7.32 1.62.49 1.62.65 1.46.73 1.38.89 1.3.89L79.46 12l1.05 1.13.89 1.22.81 1.3.57 1.35.32 1.38.33 1.46.08 1.54-.08 1.54-.33 1.46-.32 1.38-.57 1.38-.81 1.29-.89 1.22-1.05 1.13-1.13 1.06-1.3.89-1.38.89-1.46.73-1.62.65-1.62.49-1.7.32-1.78.24-1.78.08-1.86-.08-1.83-.22-1.7-.32-1.67-.51-1.54-.65-1.46-.73-1.38-.89-1.25-.87-1.13-1.06-1.05-1.13-.89-1.22-.73-1.29-.57-1.38-.49-1.38-.32-1.46-.08-1.54.08-1.54.32-1.46.44-1.4.57-1.38.73-1.3.89-1.22 1.06-1.1L53 11l1.3-.89 1.38-.89 1.46-.73 1.54-.65 1.7-.49L62 7l1.79-.24z" transform="translate(-7.9 -6.66)"/></g></g></g></g><path class="a6f7ab1a-d6ef-4d0f-8e23-bcb4ddbf1859" d="M353.65 143.52a2.2 2.2 0 1 0-2.28-2.18 2.16 2.16 0 0 0 2.28 2.18zm2 18.4v-16.09h-4.05v16.09zm-31.7 0h4v-9.52a4.72 4.72 0 0 1 .2-1.36 3.26 3.26 0 0 1 2.94-2.28c1.88 0 2.77 1.59 2.77 3.83v9.32h4v-9.65a4.39 4.39 0 0 1 .2-1.35 3.1 3.1 0 0 1 2.84-2.15c1.95 0 2.87 1.59 2.87 4.26v8.89h4v-9.48c0-5.15-2.71-7-5.35-7a5.59 5.59 0 0 0-3.31 1 6.33 6.33 0 0 0-1.95 2H337a4.64 4.64 0 0 0-4.46-3 5.47 5.47 0 0 0-5 2.74h-.1l-.2-2.38h-3.47c.07 1.39.13 2.94.13 4.79zm-14-9.75c.17-1.65 1.22-3.93 3.73-3.93 2.71 0 3.37 2.45 3.34 3.93zm10.8 2.83a10.26 10.26 0 0 0 .13-1.72c0-3.54-1.72-7.83-6.94-7.83s-7.87 4.19-7.87 8.66c0 4.92 3.08 8.13 8.29 8.13a14.4 14.4 0 0 0 5.62-1l-.6-2.77a12.94 12.94 0 0 1-4.46.73c-2.58 0-4.86-1.25-5-4.16zm-21.75-.05a4.54 4.54 0 0 1-.13 1.19 3.58 3.58 0 0 1-3.5 2.88c-2.58 0-4-2.15-4-5.12s1.45-5.29 4.06-5.29a3.56 3.56 0 0 1 3.5 2.84 5.88 5.88 0 0 1 .1 1.09zm0-16.52v9.12h-.07a5.1 5.1 0 0 0-4.52-2.08c-3.87 0-7.24 3.2-7.21 8.59 0 5 3 8.23 6.91 8.23a5.78 5.78 0 0 0 5.22-2.91h.06l.2 2.55h3.6c-.06-1.09-.13-2.88-.13-4.53v-19zm-18.74 17.84a2.77 2.77 0 0 1-.1.89 3.34 3.34 0 0 1-3.21 2.21 2.13 2.13 0 0 1-2.31-2.31c0-2.45 2.74-3 5.62-3zm4-4c0-3.53-1.49-6.81-6.64-6.81a11.55 11.55 0 0 0-5.82 1.42l.79 2.64a8.53 8.53 0 0 1 4.33-1.19c2.84 0 3.27 1.75 3.27 2.81v.27c-6 0-9.55 2-9.55 6.08a4.78 4.78 0 0 0 5.05 4.79 5.87 5.87 0 0 0 4.76-2.15h.1l.3 1.79h3.66a21.84 21.84 0 0 1-.26-3.86zm-25.1-13.84H255v23.49h4.06v-5.48l1.36-1.62 4.62 7.1h5l-6.81-9.52 6-6.58h-4.89L260.4 151c-.4.56-.86 1.25-1.25 1.88h-.07zm-19.31 14.11l1.72-5.49c.4-1.32.73-2.87 1.06-4.16h.07c.33 1.29.69 2.81 1.12 4.16l1.75 5.49zm6.41 3.07l2 6.31h4.36l-7.24-22.27h-5.19L233 161.92h4.2l1.91-6.31zm-30 3.74c-2.41 0-4-2.35-4-5.45 0-2.67 1.15-5.48 4-5.48s3.9 2.91 3.9 5.42c0 3.27-1.62 5.52-3.93 5.52zm-.07 2.94c4.06 0 8.23-2.65 8.23-8.56 0-4.89-3.21-8.26-8-8.26S208 148.7 208 154s3.54 8.3 8.06 8.3zm-22.18-9.62a4.88 4.88 0 0 1 .13-1.06 3.78 3.78 0 0 1 3.6-3c2.71 0 4.06 2.31 4.06 5.15 0 3.27-1.55 5.29-4.1 5.29a3.71 3.71 0 0 1-3.6-2.84 4.45 4.45 0 0 1-.1-1zm-4.06 4.76c0 1.62-.07 3.4-.13 4.5h3.47l.2-2.41h.07a5.53 5.53 0 0 0 5.09 2.78c3.63 0 7.3-2.88 7.3-8.66 0-4.89-2.78-8.16-6.71-8.16A5.82 5.82 0 0 0 194 148h-.07v-9.61h-4.06zM177.5 134a1.55 1.55 0 0 1 1.55 1.65 1.53 1.53 0 0 1-1.55 1.62 1.64 1.64 0 0 1 0-3.27zm0-1.45c-2.28 0-3.6 1.42-3.6 3.14s1.39 3.07 3.6 3.07 3.57-1.36 3.57-3.07-1.25-3.14-3.53-3.14zm-3 20l1.71-5.49c.4-1.32.73-2.87 1.06-4.16h.07c.33 1.29.69 2.81 1.12 4.16l1.75 5.49zm6.41 3.07l2 6.31h4.36l-7.24-22.27h-5.19l-7.14 22.27h4.19l1.92-6.31z" transform="translate(-7.9 -6.66)"/></g></g></svg>